<svg width="500" height="447" viewBox="0 0 500 447" fill="none" xmlns="http://www.w3.org/2000/svg">
<path d="M147.151 63.1953C115.464 65.3385 46.6216 87.3311 47.0077 182.179C47.2394 238.814 103.915 307.566 154.417 351.452C162.747 358.692 170.767 364.958 178.519 370.772C186.209 376.54 193.268 381.351 199.904 385.733C201.446 386.751 202.936 387.71 204.415 388.658C208.575 391.326 212.234 393.542 215.809 395.66C221.885 399.253 228.069 402.88 232.003 404.916C233.011 405.428 234.59 406.221 235.251 406.548C238.215 408.018 240.608 409.182 240.729 409.234C240.849 409.193 243.365 408.262 245.623 407.373C246.609 406.98 249.212 405.762 251.192 404.937C255.566 403.069 260.47 400.985 267.177 397.673C267.254 397.635 267.34 397.569 267.42 397.53C267.561 397.46 267.76 397.362 267.903 397.291C278.283 392.137 291.154 385.026 305.244 376.117C313.557 370.858 322.221 365.11 331.238 358.427C384.974 318.662 446.728 254.631 451.316 198.187C460.082 90.156 371.415 69.8293 349.657 70.9133C327.922 71.9974 275.918 88.6038 263.129 129.771C250.34 170.936 279.518 187.533 279.518 187.533C279.518 187.533 287.554 193.087 297.645 191.667C307.736 190.249 311.797 178.033 311.797 178.033L297.002 177.927C297.002 177.927 305.846 154.338 326.446 156.648C347.045 158.957 366.555 191.592 366.555 191.592C366.555 191.592 387.382 220.821 369.78 272.947C374.572 254.563 370.802 240.089 366.873 224.009C361.944 203.76 351.633 189.997 351.633 189.997C351.633 189.997 341.526 200.578 332.646 213.585C323.788 226.591 315.192 245.457 315.192 245.457C315.192 245.457 306.734 228.505 295.199 216.755C283.663 205.008 269.062 198.44 269.062 198.44C269.062 198.44 267.804 247.382 247.638 291.117C246.836 292.855 245.905 294.374 245.076 296.046C244.376 294.312 243.602 292.765 242.939 290.969C226.195 245.775 228.741 196.867 228.741 196.867C228.741 196.867 213.638 202.271 201.235 213.071C188.83 223.873 179.116 240.102 179.116 240.102C179.116 240.102 171.993 220.573 164.158 206.905C156.32 193.24 147.074 181.942 147.074 181.942C147.074 181.942 135.711 194.831 129.227 214.628C124.078 230.346 122.354 244.143 122.538 263.127C108.986 209.757 132.005 182.31 132.005 182.31C132.005 182.31 154.001 151.282 174.714 150.607C195.425 149.932 202.407 174.193 202.407 174.193L189.468 173.222C189.468 173.222 190.772 185.576 200.724 187.79C210.676 190.003 219.087 185.126 219.087 185.126C219.087 185.126 249.502 170.888 239.916 128.839C230.331 86.788 179.788 66.0998 158.198 63.3022C155.5 62.9544 151.678 62.8908 147.151 63.1953Z" fill="#FBCFD9"/>
<path d="M147.39 185.324C147.39 185.324 135.977 198.446 129.449 218.569C124.269 234.546 122.538 248.575 122.706 267.863C123.27 270.12 123.767 272.338 124.464 274.685C141.871 333.438 197.944 364.154 197.944 364.154C197.944 364.154 225.48 342.268 245.628 301.18C244.928 299.419 244.14 297.837 243.475 296.012C226.722 250.106 229.302 200.44 229.302 200.44C229.302 200.44 214.167 205.93 201.712 216.919C189.254 227.905 179.466 244.384 179.466 244.384C179.466 244.384 172.352 224.584 164.505 210.707C156.656 196.828 147.39 185.324 147.39 185.324Z" fill="url(#paint0_radial_105_799)"/>
<path d="M350.747 72.3383C328.944 73.4609 276.763 90.3832 263.89 132.223C251.015 174.065 280.286 190.888 280.286 190.888C280.286 190.888 288.315 196.505 298.442 195.053C308.567 193.601 310.856 181.195 310.856 181.195L297.831 181.088C297.831 181.088 306.732 157.113 327.4 159.438C348.067 161.763 367.622 194.91 367.622 194.91C367.622 194.91 388.495 224.575 370.779 277.558C370.348 282.54 365.079 298.233 363.057 303.76C354.041 328.323 346.841 338.061 346.841 338.061C346.841 338.061 332.646 363.783 305.905 382.464C314.252 377.115 322.925 371.281 331.987 364.476C385.928 324.018 448 258.872 452.656 201.517C461.559 91.7355 372.574 71.2156 350.747 72.3383Z" fill="url(#paint1_radial_105_799)"/>
<path d="M147.605 64.6907C115.811 66.8998 46.7079 89.3105 47.0009 185.683C47.1758 243.227 103.976 313.005 154.603 357.547C162.954 364.897 170.976 371.251 178.748 377.151C202.173 394.932 221.685 406.193 232.387 411.796C233.397 412.314 234.953 413.152 235.616 413.484C238.587 414.975 241.019 416.159 241.142 416.214C241.262 416.17 243.756 415.18 246.023 414.273C247.011 413.875 249.632 412.673 251.619 411.832C256.009 409.932 260.961 407.773 267.692 404.4C267.772 404.362 267.865 404.332 267.944 404.294C268.087 404.221 268.267 404.114 268.41 404.041C278.83 398.796 291.76 391.53 305.905 382.464C332.646 363.783 346.364 338.257 346.364 338.257C346.364 338.257 356.266 319.973 360.968 308.909C365.669 297.844 365.601 297.596 370.779 277.558C375.594 258.874 371.779 244.204 367.872 227.868C362.921 207.298 352.61 193.294 352.61 193.294C352.61 193.294 342.48 204.089 333.577 217.312C324.651 230.536 316.021 249.697 316.021 249.697C316.021 249.697 307.529 232.505 295.966 220.58C284.404 208.655 269.773 201.983 269.773 201.983C269.773 201.983 268.451 251.731 248.174 296.192C247.367 297.957 246.461 299.48 245.628 301.18C225.48 342.268 197.944 364.154 197.944 364.154C197.944 364.154 141.871 333.438 124.464 274.685C123.767 272.338 123.27 270.12 122.706 267.863C109.161 213.651 132.284 185.719 132.284 185.719C132.284 185.719 154.378 154.184 175.16 153.477C195.943 152.773 202.932 177.39 202.932 177.39L189.943 176.456C189.943 176.456 191.226 189.01 201.208 191.247C211.192 193.485 219.65 188.519 219.65 188.519C219.65 188.519 250.179 174.008 240.604 131.291C231.029 88.5719 180.315 67.6201 158.657 64.7998C155.95 64.4475 152.148 64.3771 147.605 64.6907Z" fill="url(#paint2_linear_105_799)"/>
<defs>
<radialGradient id="paint0_radial_105_799" cx="0" cy="0" r="1" gradientUnits="userSpaceOnUse" gradientTransform="translate(204.971 145.977) rotate(99.1131) scale(204.679 203.855)">
<stop offset="0.31875" stop-color="#FE99B0"/>
<stop offset="0.704167" stop-color="#FFF3D5"/>
<stop offset="0.997917" stop-color="#FBF7E5"/>
</radialGradient>
<radialGradient id="paint1_radial_105_799" cx="0" cy="0" r="1" gradientUnits="userSpaceOnUse" gradientTransform="translate(319.335 205.985) rotate(88.5131) scale(191.433 190.66)">
<stop offset="0.3125" stop-color="#FFF3D5"/>
<stop offset="0.99375" stop-color="#FE99B0"/>
<stop offset="0.997917" stop-color="#FBF7E5"/>
</radialGradient>
<linearGradient id="paint2_linear_105_799" x1="291.192" y1="300.526" x2="321.862" y2="187.515" gradientUnits="userSpaceOnUse">
<stop stop-color="#FFA270"/>
<stop offset="1" stop-color="#FF7871"/>
</linearGradient>
</defs>
</svg>
